<svg width="71" height="43" viewBox="0 0 71 43" fill="none" xmlns="http://www.w3.org/2000/svg">
<path d="M9.23144 9.6C9.23144 8.48 9.13544 7.568 8.94344 6.864C8.75944 6.16 8.49944 5.616 8.16344 5.232C7.83544 4.848 7.44744 4.584 6.99944 4.44C6.55144 4.296 6.06744 4.224 5.54744 4.224H4.70744V15.156H5.54744C6.09144 15.156 6.58744 15.072 7.03544 14.904C7.49144 14.728 7.88344 14.436 8.21144 14.028C8.53944 13.612 8.79144 13.044 8.96744 12.324C9.14344 11.604 9.23144 10.696 9.23144 9.6ZM13.3114 9.6C13.3114 10.952 13.1674 12.112 12.8794 13.08C12.5914 14.04 12.1874 14.84 11.6674 15.48C11.1554 16.12 10.5594 16.624 9.87944 16.992C9.19944 17.36 8.46744 17.62 7.68344 17.772C6.89944 17.924 6.09144 18 5.25944 18H0.771438V1.368H4.97144C6.03544 1.368 7.06344 1.48 8.05544 1.704C9.05544 1.92 9.94744 2.324 10.7314 2.916C11.5234 3.5 12.1514 4.332 12.6154 5.412C13.0794 6.484 13.3114 7.88 13.3114 9.6ZM26.5141 1.368V4.248H23.0821V15.108H26.5141V18H15.7141V15.108H19.1461V4.248H15.7141V1.368H26.5141ZM42.1647 9.672C42.1647 11.432 41.9127 12.968 41.4087 14.28C40.9047 15.584 40.1567 16.6 39.1647 17.328C38.1807 18.048 36.9607 18.408 35.5047 18.408C34.0567 18.408 32.8367 18.056 31.8447 17.352C30.8527 16.64 30.1047 15.632 29.6007 14.328C29.0967 13.024 28.8447 11.472 28.8447 9.672C28.8447 7.912 29.0967 6.38 29.6007 5.076C30.1047 3.772 30.8527 2.76 31.8447 2.04C32.8367 1.312 34.0567 0.947999 35.5047 0.947999C36.9607 0.947999 38.1807 1.3 39.1647 2.004C40.1567 2.708 40.9047 3.712 41.4087 5.016C41.9127 6.32 42.1647 7.872 42.1647 9.672ZM38.1327 9.672C38.1327 7.624 37.9287 6.136 37.5207 5.208C37.1127 4.28 36.4407 3.816 35.5047 3.816C34.5687 3.816 33.8967 4.284 33.4887 5.22C33.0807 6.148 32.8767 7.632 32.8767 9.672C32.8767 11.72 33.0847 13.208 33.5007 14.136C33.9167 15.064 34.5847 15.528 35.5047 15.528C36.4647 15.528 37.1407 15.06 37.5327 14.124C37.9327 13.18 38.1327 11.696 38.1327 9.672ZM50.5073 18.408C48.9313 18.408 47.6033 18.076 46.5233 17.412C45.4433 16.74 44.6233 15.756 44.0633 14.46C43.5113 13.156 43.2353 11.552 43.2353 9.648C43.2353 8.232 43.4313 6.984 43.8233 5.904C44.2233 4.816 44.7753 3.908 45.4793 3.18C46.1833 2.444 47.0033 1.888 47.9393 1.512C48.8753 1.136 49.8833 0.947999 50.9633 0.947999C52.1793 0.947999 53.2033 1.136 54.0353 1.512C54.8673 1.888 55.6073 2.384 56.2553 3L54.1913 5.136C53.6873 4.688 53.2033 4.356 52.7393 4.14C52.2753 3.924 51.7473 3.816 51.1553 3.816C50.5953 3.816 50.0793 3.928 49.6073 4.152C49.1433 4.368 48.7353 4.712 48.3833 5.184C48.0393 5.648 47.7713 6.252 47.5793 6.996C47.3873 7.732 47.2913 8.624 47.2913 9.672C47.2913 11.12 47.4073 12.272 47.6393 13.128C47.8793 13.984 48.2393 14.6 48.7193 14.976C49.1993 15.344 49.8073 15.528 50.5433 15.528C50.9353 15.528 51.3033 15.484 51.6473 15.396C51.9913 15.3 52.3113 15.176 52.6073 15.024V11.22H50.5193L50.1353 8.46H56.3273V16.728C55.4953 17.24 54.5993 17.648 53.6393 17.952C52.6873 18.256 51.6433 18.408 50.5073 18.408ZM70.9459 9.672C70.9459 11.432 70.6939 12.968 70.1899 14.28C69.6859 15.584 68.9379 16.6 67.9459 17.328C66.9619 18.048 65.7419 18.408 64.2859 18.408C62.8379 18.408 61.6179 18.056 60.6259 17.352C59.6339 16.64 58.8859 15.632 58.3819 14.328C57.8779 13.024 57.6259 11.472 57.6259 9.672C57.6259 7.912 57.8779 6.38 58.3819 5.076C58.8859 3.772 59.6339 2.76 60.6259 2.04C61.6179 1.312 62.8379 0.947999 64.2859 0.947999C65.7419 0.947999 66.9619 1.3 67.9459 2.004C68.9379 2.708 69.6859 3.712 70.1899 5.016C70.6939 6.32 70.9459 7.872 70.9459 9.672ZM66.9139 9.672C66.9139 7.624 66.7099 6.136 66.3019 5.208C65.8939 4.28 65.2219 3.816 64.2859 3.816C63.3499 3.816 62.6779 4.284 62.2699 5.22C61.8619 6.148 61.6579 7.632 61.6579 9.672C61.6579 11.72 61.8659 13.208 62.2819 14.136C62.6979 15.064 63.3659 15.528 64.2859 15.528C65.2459 15.528 65.9219 15.06 66.3139 14.124C66.7139 13.18 66.9139 11.696 66.9139 9.672ZM12.1714 25.368V36.012C12.1714 36.98 12.0234 37.856 11.7274 38.64C11.4314 39.424 10.9954 40.092 10.4194 40.644C9.85144 41.196 9.15144 41.62 8.31944 41.916C7.49544 42.212 6.55144 42.36 5.48744 42.36C4.41544 42.36 3.48744 42.224 2.70344 41.952C1.92744 41.672 1.17944 41.288 0.459438 40.8L1.95944 38.376C2.52744 38.768 3.05944 39.044 3.55544 39.204C4.05144 39.356 4.61544 39.432 5.24744 39.432C6.10344 39.432 6.81544 39.16 7.38344 38.616C7.95944 38.064 8.24744 37.212 8.24744 36.06V28.248H3.13544V25.368H12.1714ZM27.7741 33.672C27.7741 35.432 27.5221 36.968 27.0181 38.28C26.5141 39.584 25.7661 40.6 24.7741 41.328C23.7901 42.048 22.5701 42.408 21.1141 42.408C19.6661 42.408 18.4461 42.056 17.4541 41.352C16.4621 40.64 15.7141 39.632 15.2101 38.328C14.7061 37.024 14.4541 35.472 14.4541 33.672C14.4541 31.912 14.7061 30.38 15.2101 29.076C15.7141 27.772 16.4621 26.76 17.4541 26.04C18.4461 25.312 19.6661 24.948 21.1141 24.948C22.5701 24.948 23.7901 25.3 24.7741 26.004C25.7661 26.708 26.5141 27.712 27.0181 29.016C27.5221 30.32 27.7741 31.872 27.7741 33.672ZM23.7421 33.672C23.7421 31.624 23.5381 30.136 23.1301 29.208C22.7221 28.28 22.0501 27.816 21.1141 27.816C20.1781 27.816 19.5061 28.284 19.0981 29.22C18.6901 30.148 18.4861 31.632 18.4861 33.672C18.4861 35.72 18.6941 37.208 19.1101 38.136C19.5261 39.064 20.1941 39.528 21.1141 39.528C22.0741 39.528 22.7501 39.06 23.1421 38.124C23.5421 37.18 23.7421 35.696 23.7421 33.672ZM41.7807 30.42C41.7807 31.212 41.6327 31.904 41.3367 32.496C41.0407 33.088 40.6407 33.588 40.1367 33.996C39.6327 34.404 39.0687 34.732 38.4447 34.98L42.8007 42H38.3487L34.7487 35.64H33.6327V42H29.6967V25.368H34.9287C37.1927 25.368 38.9007 25.78 40.0527 26.604C41.2047 27.428 41.7807 28.7 41.7807 30.42ZM37.7247 30.42C37.7247 29.62 37.4887 29.04 37.0167 28.68C36.5527 28.312 35.8607 28.128 34.9407 28.128H33.6327V32.94H35.0967C35.9527 32.94 36.6047 32.74 37.0527 32.34C37.5007 31.94 37.7247 31.3 37.7247 30.42ZM50.5073 42.408C48.9313 42.408 47.6033 42.076 46.5233 41.412C45.4433 40.74 44.6233 39.756 44.0633 38.46C43.5113 37.156 43.2353 35.552 43.2353 33.648C43.2353 32.232 43.4313 30.984 43.8233 29.904C44.2233 28.816 44.7753 27.908 45.4793 27.18C46.1833 26.444 47.0033 25.888 47.9393 25.512C48.8753 25.136 49.8833 24.948 50.9633 24.948C52.1793 24.948 53.2033 25.136 54.0353 25.512C54.8673 25.888 55.6073 26.384 56.2553 27L54.1913 29.136C53.6873 28.688 53.2033 28.356 52.7393 28.14C52.2753 27.924 51.7473 27.816 51.1553 27.816C50.5953 27.816 50.0793 27.928 49.6073 28.152C49.1433 28.368 48.7353 28.712 48.3833 29.184C48.0393 29.648 47.7713 30.252 47.5793 30.996C47.3873 31.732 47.2913 32.624 47.2913 33.672C47.2913 35.12 47.4073 36.272 47.6393 37.128C47.8793 37.984 48.2393 38.6 48.7193 38.976C49.1993 39.344 49.8073 39.528 50.5433 39.528C50.9353 39.528 51.3033 39.484 51.6473 39.396C51.9913 39.3 52.3113 39.176 52.6073 39.024V35.22H50.5193L50.1353 32.46H56.3273V40.728C55.4953 41.24 54.5993 41.648 53.6393 41.952C52.6873 42.256 51.6433 42.408 50.5073 42.408ZM63.2539 28.176V32.172H69.0139V34.932H63.2539V39.18H70.2019V42H59.3179V25.368H70.1899L69.7939 28.176H63.2539Z" fill="white"/>
</svg>
